<?xml version="1.0" encoding="utf-8"?><svg xmlns="http://www.w3.org/2000/svg" xmlns:xlink="http://www.w3.org/1999/xlink"><symbol viewBox="0 0 22 24" id="basket" xmlns="http://www.w3.org/2000/svg"><g clip-path="url(#aa)"><path d="M10.363 18.443a2.046 2.046 0 00-2.045 2.042 2.046 2.046 0 004.09 0 2.046 2.046 0 00-2.045-2.042zm6.134 0a2.046 2.046 0 00-2.045 2.042 2.046 2.046 0 004.089 0 2.046 2.046 0 00-2.044-2.042zm3.978-8.199L7.413 6.891a.614.614 0 00-.75.73L8.67 16.4h-.786L5.482 5.895a.613.613 0 00-.474-.464l-4.27-.882A.614.614 0 00.489 5.75l3.885.802L6.797 17.15a.613.613 0 00.598.477h12.07a.615.615 0 00.607-.53l.858-6.175a.613.613 0 00-.455-.678zm-8.14 3.91a.613.613 0 01-1.227 0v-2.696a.613.613 0 011.227 0v2.696zm2.625 0a.613.613 0 01-1.227 0v-1.88a.613.613 0 011.227 0v1.88zm2.625 0a.613.613 0 01-1.227 0v-1.226a.613.613 0 011.227 0v1.226z"/></g><path fill-rule="evenodd" clip-rule="evenodd" d="M16.268 4.568a2.996 2.996 0 00-1.693-.523c-.627 0-1.21.193-1.693.523-.28-.843-.492-1.752-.492-2.383C12.39.98 13.37 0 14.575 0s2.185.98 2.185 2.185c0 .631-.212 1.54-.492 2.383zm-4.722 2.274l.024.006v-.011l-.024.005zm4.972 1.217c-1.333-.33-2.766-.681-4.129-1.013a2.185 2.185 0 114.129 1.013zm4.436 1.103c-.866-.217-2.155-.538-3.618-.9a2.995 2.995 0 00.243-1.425c.87.18 1.762.45 2.308.765.596.344.969.928 1.067 1.56zM9.869 6.439c-.36-.086-.706-.167-1.03-.243a2.19 2.19 0 01-.376-2.667 2.188 2.188 0 013.147-.7c.098.738.338 1.599.61 2.353a3.01 3.01 0 00-.449.774c-.628.113-1.305.278-1.902.483zm10.124.075a3.43 3.43 0 01-.217.114c-.696-.295-1.587-.526-2.397-.672a3.01 3.01 0 00-.449-.774c.262-.727.494-1.553.599-2.273.095-.067.189-.128.278-.18a2.188 2.188 0 012.986.8 2.188 2.188 0 01-.8 2.985z"/><defs><clipPath id="aa"><path transform="translate(0 3.064)" d="M0 0h20.936v20.936H0z"/></clipPath></defs></symbol><symbol viewBox="0 0 344.96 344.96" id="check" xmlns="http://www.w3.org/2000/svg"><g data-name="Слой 2"><path class="bcls-1" d="M321.85 86.24l-40-23.11-23.1-40H212.5L172.48 0l-40 23.11H86.24l-23.11 40-40 23.1v46.21L0 172.48l23.11 40v46.21l40 23.11 23.11 40h46.21l40 23.1 40-23.11h46.21l23.11-40 40-23.11V212.5l23.11-40-23.11-40V86.24zM156.91 243.07a16.79 16.79 0 01-23.34 0l-50.45-50.44a16.19 16.19 0 010-22.89l13.35-13.35a16.19 16.19 0 0122.89 0l25.87 25.87 80.34-80.35a16.19 16.19 0 0122.89 0l13.35 13.35a16.19 16.19 0 010 22.89z" data-name="Capa 1"/></g></symbol><symbol viewBox="0 0 33 19" id="chevron-down" xmlns="http://www.w3.org/2000/svg"><rect x="14.227" y="16.351" width="22.881" height="3" rx="1.5" transform="rotate(-45 14.227 16.351)"/><rect width="23.103" height="3" rx="1.5" transform="scale(1 -1) rotate(-45 -2.561 -1.06)"/></symbol><symbol viewBox="0 0 19 19" id="clock" xmlns="http://www.w3.org/2000/svg"><path d="M12.923 7.639l-3.045 1.3-3.505-2.023a.735.735 0 10-.736 1.275l3.824 2.207c.2.116.444.131.657.04l3.383-1.446a.731.731 0 00.388-.966.734.734 0 00-.966-.387z"/><path d="M9.5 0C4.261 0 0 4.261 0 9.5S4.261 19 9.5 19 19 14.739 19 9.5 14.739 0 9.5 0zm0 17.528c-4.426 0-8.028-3.602-8.028-8.028S5.074 1.472 9.5 1.472c4.427 0 8.028 3.602 8.028 8.028s-3.602 8.028-8.028 8.028z"/></symbol><symbol viewBox="0 0 34 34" id="facebook" xmlns="http://www.w3.org/2000/svg"><path d="M21.807 11.63h1.68c.69 0 1.252-.562 1.252-1.252V7.21c0-.69-.562-1.252-1.253-1.252h-2.14a7.168 7.168 0 00-4.794 1.834.498.498 0 10.665.742 6.175 6.175 0 014.129-1.58h2.14c.142 0 .256.115.256.256v3.168a.257.257 0 01-.256.256h-1.679a2.97 2.97 0 00-2.967 2.968v2.794c0 .275.223.498.498.498h4.148c.142 0 .256.115.256.256v3.169a.256.256 0 01-.256.256h-4.148a.498.498 0 00-.498.498v4.954a.498.498 0 10.996 0v-4.456h3.65c.69 0 1.253-.562 1.253-1.253V17.15c0-.69-.562-1.252-1.253-1.252h-3.65v-2.296c0-1.087.884-1.972 1.971-1.972z"/><path d="M31.51 0H2.49A2.493 2.493 0 000 2.49v12.9a.498.498 0 10.996 0V2.49c0-.824.67-1.494 1.494-1.494h29.02c.824 0 1.494.67 1.494 1.494v29.02c0 .824-.67 1.494-1.494 1.494H19.836V28.32a.498.498 0 00-.996 0v4.684h-3.68V21.073a.498.498 0 00-.498-.498h-4.149a.256.256 0 01-.256-.257V17.15c0-.14.115-.256.257-.256h4.148a.498.498 0 00.498-.498V13.14c0-1.021.254-2.034.735-2.927a.498.498 0 10-.877-.472 7.195 7.195 0 00-.854 3.399v2.758h-3.65c-.691 0-1.253.562-1.253 1.253v3.167c0 .69.562 1.253 1.253 1.253h3.65v11.433H2.49c-.824 0-1.494-.67-1.494-1.494V17.68a.498.498 0 10-.996 0v13.83A2.493 2.493 0 002.49 34h29.02A2.493 2.493 0 0034 31.51V2.49A2.493 2.493 0 0031.51 0z"/></symbol><symbol viewBox="0 0 24 24" id="fb" xmlns="http://www.w3.org/2000/svg"><path d="M13.397 20.997v-8.196h2.765l.411-3.209h-3.176V7.548c0-.926.258-1.56 1.587-1.56h1.684v-2.86A22.108 22.108 0 0014.201 3c-2.444 0-4.122 1.492-4.122 4.231v2.355H7.332v3.21h2.753v8.201h3.312z"/></symbol><symbol viewBox="0 0 22 22" id="geo" xmlns="http://www.w3.org/2000/svg"><g clip-path="url(#ga)"><path d="M17.363 2.512c-3.517-3.35-9.209-3.35-12.726 0-3.516 3.349-3.516 8.77 0 12.12l5.887 7.18c.263.25.689.25.952 0l5.887-7.18c3.516-3.35 3.516-8.77 0-12.12zm-.952 11.213L11 20.454l-5.411-6.729c-2.984-2.841-2.984-7.465 0-10.307 2.983-2.842 7.838-2.842 10.822 0 2.984 2.842 2.984 7.466 0 10.307z"/><path d="M11 5C8.79 5 7 6.789 7 9c0 2.21 1.789 4 4 4 2.21 0 4-1.789 4-4 0-2.21-1.789-4-4-4zm1.883 5.883c-.026 0-.656.78-1.883.78A2.661 2.661 0 018.338 9 2.661 2.661 0 0111 6.338c2.39 0 3.54 2.888 1.883 4.545z"/></g><defs><clipPath id="ga"><path d="M0 0h22v22H0z"/></clipPath></defs></symbol><symbol viewBox="0 0 34 34" id="instagram" xmlns="http://www.w3.org/2000/svg"><path d="M28.179 0H5.82A5.828 5.828 0 000 5.821V28.18A5.828 5.828 0 005.821 34H28.18A5.828 5.828 0 0034 28.179V5.82A5.828 5.828 0 0028.179 0zm4.825 28.179a4.83 4.83 0 01-4.825 4.825H5.82a4.83 4.83 0 01-4.825-4.825V5.82A4.83 4.83 0 015.821.996H28.18a4.83 4.83 0 014.825 4.825V28.18z"/><path d="M17 7.452c-5.264 0-9.547 4.283-9.547 9.548 0 5.264 4.282 9.547 9.547 9.547 5.265 0 9.547-4.283 9.547-9.547 0-5.265-4.282-9.548-9.547-9.548zm0 18.1c-4.715 0-8.551-3.837-8.551-8.552S12.285 8.449 17 8.449s8.551 3.836 8.551 8.55c0 4.716-3.836 8.552-8.551 8.552zM27.114 4.259a2.63 2.63 0 00-2.627 2.627 2.63 2.63 0 002.627 2.627 2.63 2.63 0 002.627-2.627 2.63 2.63 0 00-2.627-2.627zm0 4.258c-.9 0-1.631-.732-1.631-1.631 0-.9.732-1.631 1.631-1.631.9 0 1.631.732 1.631 1.63 0 .9-.732 1.632-1.63 1.632z"/><path d="M12.835 12.835a5.866 5.866 0 017.572-.631.498.498 0 00.578-.812 6.9 6.9 0 00-4.53-1.253 6.873 6.873 0 00-6.316 6.316 6.901 6.901 0 001.253 4.53.497.497 0 10.812-.578 5.866 5.866 0 01.631-7.572zm9.078.063a.498.498 0 00-.117.694 5.866 5.866 0 01-.631 7.573 5.866 5.866 0 01-7.573.631.498.498 0 00-.578.812 6.898 6.898 0 004.531 1.253 6.873 6.873 0 006.316-6.316 6.901 6.901 0 00-1.253-4.53.498.498 0 00-.695-.117z"/></symbol><symbol viewBox="0 0 23 23" id="mail" xmlns="http://www.w3.org/2000/svg"><path d="M19.979 2.414H3.02c-1.115 0-2.02.91-2.02 2.022v12.128c0 1.118.911 2.022 2.021 2.022h16.957c1.108 0 2.022-.9 2.022-2.021V4.434c0-1.109-.901-2.02-2.021-2.02zm-.284 1.348c-.413.41-6.52 7.48-6.766 7.725a2.005 2.005 0 01-1.429.592 2.01 2.01 0 01-1.43-.594c-.166-.164-6.195-7.156-6.765-7.723h16.39zM2.348 16.29V4.71l4.823 5.794-4.823 5.786zm.957.948l4.822-5.784.99.986a3.347 3.347 0 002.383.987c.9 0 1.746-.35 2.381-.986l.992-.987 4.822 5.784H3.305zm17.347-.948l-4.823-5.786 4.823-5.793v11.58z"/></symbol><symbol viewBox="0 0 24 24" id="phone" xmlns="http://www.w3.org/2000/svg"><path d="M18.95 14.867c-.491-.512-1.084-.785-1.712-.785-.623 0-1.22.268-1.732.78l-1.601 1.596c-.132-.071-.263-.137-.39-.203a6.43 6.43 0 01-.502-.268c-1.499-.953-2.861-2.194-4.168-3.8-.633-.8-1.059-1.473-1.368-2.157.415-.38.8-.775 1.175-1.155.142-.142.284-.289.426-.43 1.063-1.064 1.063-2.442 0-3.506L7.695 3.556c-.157-.157-.32-.319-.471-.481a23.915 23.915 0 00-.953-.942c-.49-.486-1.078-.745-1.696-.745-.618 0-1.216.259-1.723.745l-.01.01L1.12 3.88a3.706 3.706 0 00-1.1 2.356C-.1 7.715.336 9.093.67 9.994c.82 2.214 2.046 4.265 3.874 6.464 2.219 2.649 4.888 4.74 7.938 6.215 1.165.552 2.72 1.205 4.457 1.317.107.005.218.01.32.01 1.17 0 2.152-.42 2.922-1.256.005-.01.015-.015.02-.026.264-.319.568-.607.887-.916.217-.208.44-.426.658-.654.502-.521.765-1.13.765-1.752 0-.629-.268-1.231-.78-1.738l-2.78-2.79zm1.814 5.334c-.006 0-.006.005 0 0-.198.213-.4.405-.619.618-.329.314-.663.643-.977 1.013-.512.547-1.114.805-1.905.805-.076 0-.157 0-.233-.005-1.504-.096-2.902-.684-3.95-1.185-2.868-1.388-5.385-3.358-7.477-5.855-1.727-2.082-2.882-4.007-3.647-6.074-.471-1.261-.643-2.244-.568-3.17a2.33 2.33 0 01.7-1.505l1.727-1.728c.248-.233.511-.36.77-.36.319 0 .577.193.74.355l.014.016c.31.288.603.587.912.906.157.162.32.325.481.492l1.383 1.383c.537.536.537 1.033 0 1.57-.147.147-.288.294-.435.435-.426.436-.831.841-1.272 1.236-.01.01-.02.016-.025.026-.436.435-.355.86-.263 1.15l.015.045c.36.871.866 1.692 1.636 2.67l.005.005c1.398 1.722 2.872 3.064 4.498 4.092.208.132.42.239.623.34.182.091.355.177.502.268.02.01.04.026.06.036.173.086.335.126.502.126.42 0 .684-.263.77-.35l1.732-1.732c.172-.172.446-.38.765-.38.314 0 .572.198.73.37a.48.48 0 01.01.01l2.79 2.792c.522.516.522 1.048.006 1.585zM12.953 5.709a6.423 6.423 0 013.495 1.813 6.457 6.457 0 011.813 3.495.68.68 0 00.674.568c.04 0 .076-.005.116-.01a.684.684 0 00.563-.79 7.814 7.814 0 00-2.194-4.23 7.813 7.813 0 00-4.23-2.193.687.687 0 00-.79.557c-.066.37.178.73.553.79zm11.002 4.878a12.854 12.854 0 00-3.612-6.965A12.853 12.853 0 0013.378.01a.681.681 0 00-.785.558.687.687 0 00.562.79c2.36.4 4.514 1.52 6.226 3.226a11.476 11.476 0 013.226 6.226.68.68 0 00.674.567c.04 0 .076-.005.117-.01a.671.671 0 00.557-.78z"/></symbol><symbol viewBox="0 0 24 24" id="phone-call" xmlns="http://www.w3.org/2000/svg"><path d="M18.968 14.867c-.492-.512-1.084-.785-1.712-.785-.623 0-1.221.268-1.733.78l-1.6 1.596c-.132-.071-.264-.137-.39-.203a6.43 6.43 0 01-.502-.268c-1.5-.953-2.082-.745-3.389-2.35-.633-.801-1.838-2.924-2.147-3.607.415-.38.8-.775 1.175-1.155.142-.142.283-.289.425-.43 1.064-1.064 1.064-2.442 0-3.506L7.712 3.556a19.364 19.364 0 01-.47-.481 23.915 23.915 0 00-.953-.942c-.491-.486-1.079-.745-1.697-.745-.618 0-1.215.259-1.722.745l-.01.01L1.138 3.88a3.706 3.706 0 00-1.1 2.356c-.121 1.479.314 2.857.649 3.758.82 2.214 2.826 5.714 4.655 7.912 2.218 2.65 4.108 3.293 7.157 4.767 1.165.552 2.72 1.205 4.458 1.317.106.005.217.01.319.01 1.17 0 2.153-.42 2.923-1.256.005-.01.015-.015.02-.026.263-.319.567-.607.886-.916.218-.208.441-.426.659-.654.501-.522.765-1.13.765-1.752 0-.629-.269-1.231-.78-1.738l-2.781-2.79zm1.813 5.334c-.005.005-.005 0 0 0-.197.213-.4.405-.618.618-.33.314-.663.643-.977 1.013-.512.547-1.115.805-1.905.805-.076 0-.157 0-.233-.005-1.504-.096-2.902-.684-3.951-1.185-2.867-1.388-4.604-1.91-6.696-4.407-1.728-2.082-3.663-5.455-4.428-7.522-.47-1.261-.643-2.244-.567-3.17a2.32 2.32 0 01.7-1.505l1.726-1.728c.249-.233.512-.36.77-.36.32 0 .578.193.74.355l.015.016c.309.288.603.587.912.906.157.162.319.324.481.492l1.383 1.382c.537.537.537 1.034 0 1.57-.147.148-.289.295-.436.436-.425.436-.83.841-1.271 1.236-.01.01-.02.016-.025.026-.436.435-.355.86-.264 1.15l.015.045c.36.871 1.647 3.14 2.416 4.118l.006.005c1.398 1.723 2.092 1.616 3.717 2.644.208.132.421.239.624.34.182.091.354.177.501.268.02.01.04.026.06.036.173.086.335.126.502.126.42 0 .684-.263.77-.35l1.733-1.732c.172-.172.445-.38.764-.38.314 0 .573.198.73.37a.967.967 0 00.01.01l2.791 2.792c.522.516.522 1.048.005 1.585zM12.97 5.71a6.423 6.423 0 013.495 1.812 6.457 6.457 0 011.814 3.496.68.68 0 00.673.567c.04 0 .076-.005.117-.01a.685.685 0 00.562-.79 7.814 7.814 0 00-2.193-4.23 7.813 7.813 0 00-4.23-2.193.687.687 0 00-.79.557c-.066.37.177.73.552.79zm11.002 4.877a12.853 12.853 0 00-3.611-6.965A12.853 12.853 0 0013.396.01a.681.681 0 00-.785.558.687.687 0 00.562.79c2.36.4 4.513 1.52 6.225 3.226a11.476 11.476 0 013.227 6.226.68.68 0 00.674.567c.04 0 .076-.005.116-.01a.671.671 0 00.557-.78z"/></symbol><symbol viewBox="0 0 24 24" id="play-button" xmlns="http://www.w3.org/2000/svg"><path d="M22.672 6.508a12.106 12.106 0 00-3.544-4.163.488.488 0 00-.58.786 11.125 11.125 0 013.256 3.824A10.908 10.908 0 0123.024 12c0 6.078-4.946 11.023-11.024 11.023C5.922 23.023.977 18.078.977 12 .977 5.922 5.922.977 12 .977A.489.489 0 0012 0C5.383 0 0 5.383 0 12s5.383 12 12 12 12-5.383 12-12c0-1.908-.46-3.808-1.328-5.492z"/><path d="M8.93 6.428a.489.489 0 00-.248.425V17.57a.488.488 0 00.977 0V7.71l7.231 4.305-5.317 3.426a.488.488 0 10.529.821l5.98-3.853a.489.489 0 00-.015-.83L9.421 6.433a.488.488 0 00-.492-.005z"/></symbol><symbol viewBox="0 0 16 16" id="telegram" xmlns="http://www.w3.org/2000/svg"><path d="M14.629 3.698l-2.012 9.618c-.152.679-.548.848-1.11.528l-3.066-2.29-1.48 1.442c-.163.166-.3.305-.616.305l.22-3.165 5.683-5.204c.247-.223-.054-.347-.384-.123L4.839 9.29l-3.024-.959c-.658-.208-.67-.667.137-.986L13.78 2.727c.548-.208 1.027.124.849.971z"/></symbol><symbol viewBox="0 0 16 16" id="viber" xmlns="http://www.w3.org/2000/svg"><path d="M8 1.335c-1.071.013-3.374.19-4.662 1.37-.958.948-1.292 2.35-1.331 4.084-.033 1.728-.072 4.973 3.058 5.856v1.346s-.02.538.337.648c.438.14.688-.275 1.105-.72l.778-.879c2.142.178 3.782-.232 3.97-.293.435-.139 2.883-.451 3.283-3.696.41-3.351-.2-5.463-1.301-6.418h-.007c-.332-.306-1.668-1.279-4.652-1.29 0 0-.222-.014-.578-.008zm.037.942a7.02 7.02 0 01.488.011c2.527.007 3.732.767 4.017 1.023.927.794 1.405 2.697 1.055 5.495-.332 2.713-2.317 2.885-2.685 3.002-.156.05-1.6.406-3.42.289 0 0-1.356 1.634-1.78 2.055-.067.074-.146.095-.196.085-.071-.018-.093-.107-.089-.229l.013-2.233c-2.655-.733-2.498-3.5-2.47-4.946.033-1.446.304-2.628 1.113-3.43 1.088-.982 3.043-1.115 3.953-1.122zm.2 1.446a.166.166 0 100 .332 3.136 3.136 0 012.242.883c.606.588.9 1.378.912 2.411 0 .092.074.167.167.167V7.51a.167.167 0 00.168-.165 3.588 3.588 0 00-1.009-2.646c-.66-.645-1.496-.977-2.48-.977zm-2.198.382a.523.523 0 00-.342.067H5.69a2.61 2.61 0 00-.637.523 1.003 1.003 0 00-.256.525.71.71 0 00.026.302l.01.006c.172.504.396.988.67 1.444a8.48 8.48 0 001.29 1.762l.015.022.024.017.015.018.017.015c.532.505 1.127.94 1.769 1.295.734.4 1.18.588 1.447.667v.004c.078.024.15.034.221.034.228-.016.444-.109.613-.262a2.53 2.53 0 00.517-.638v-.004c.128-.241.085-.469-.1-.623-.37-.323-.77-.61-1.195-.857-.285-.155-.574-.061-.69.095l-.25.315c-.129.156-.361.134-.361.134l-.007.004C7.093 8.527 6.63 6.772 6.63 6.772s-.022-.239.139-.36l.312-.252c.15-.122.254-.41.094-.695a7.498 7.498 0 00-.856-1.194.475.475 0 00-.28-.167zm2.486.495c-.221 0-.221.334.003.334A2.098 2.098 0 0110 5.572 1.94 1.94 0 0110.5 7a.168.168 0 00.167.165l.007.009a.169.169 0 00.167-.167c.015-.662-.191-1.218-.595-1.663C9.84 4.9 9.273 4.65 8.549 4.6h-.024zm.274.898c-.228-.006-.236.335-.01.341.55.029.816.306.851.877a.166.166 0 00.165.163h.007a.168.168 0 00.16-.178c-.039-.744-.445-1.164-1.166-1.202H8.8z"/></symbol><symbol viewBox="0 0 24 24" id="vk" xmlns="http://www.w3.org/2000/svg"><path d="M21.579 6.855c.14-.465 0-.806-.662-.806h-2.193c-.558 0-.813.295-.953.619 0 0-1.115 2.719-2.695 4.482-.51.513-.743.675-1.021.675-.139 0-.341-.162-.341-.627V6.855c0-.558-.161-.806-.626-.806H9.642c-.348 0-.558.258-.558.504 0 .528.79.65.871 2.138v3.228c0 .707-.127.836-.407.836-.743 0-2.551-2.73-3.624-5.853-.209-.607-.42-.852-.98-.852H2.752c-.627 0-.752.295-.752.619 0 .582.743 3.462 3.461 7.27 1.812 2.602 4.363 4.012 6.687 4.012 1.393 0 1.565-.313 1.565-.853v-1.966c0-.626.133-.752.574-.752.324 0 .882.164 2.183 1.417 1.486 1.486 1.732 2.153 2.567 2.153h2.192c.626 0 .939-.313.759-.931-.197-.615-.907-1.51-1.849-2.57-.512-.603-1.277-1.253-1.51-1.578-.325-.42-.231-.604 0-.976.001 0 2.672-3.761 2.95-5.04z"/></symbol><symbol viewBox="0 0 16 16" id="whatsapp" xmlns="http://www.w3.org/2000/svg"><path fill-rule="evenodd" clip-rule="evenodd" d="M12.269 3.755A5.947 5.947 0 008.035 2 5.994 5.994 0 002.05 7.985a5.98 5.98 0 00.799 2.992L2 14.077l3.173-.832c.877.477 1.86.728 2.86.728h.002a5.993 5.993 0 005.533-8.276 5.953 5.953 0 00-1.3-1.942zm-4.234 9.208h-.002c-.89 0-1.765-.24-2.532-.694l-.181-.108-1.883.494.502-1.835-.118-.188a4.965 4.965 0 01-.76-2.647 4.982 4.982 0 016.88-4.597c.604.25 1.152.618 1.613 1.081a4.946 4.946 0 011.455 3.52 4.982 4.982 0 01-4.974 4.974zm2.729-3.726c-.15-.075-.885-.436-1.022-.486-.137-.05-.236-.075-.336.074-.1.15-.387.486-.474.586-.087.1-.175.112-.324.038-.15-.075-.631-.233-1.203-.742a4.505 4.505 0 01-.832-1.036c-.087-.15-.009-.231.066-.306.068-.066.15-.174.224-.262.075-.087.1-.149.15-.249.05-.1.025-.187-.013-.262-.037-.075-.337-.811-.461-1.11-.121-.29-.244-.252-.336-.256a6.418 6.418 0 00-.286-.005.55.55 0 00-.4.186c-.137.15-.523.512-.523 1.248s.536 1.447.61 1.547c.075.1 1.055 1.61 2.555 2.258.358.154.636.246.853.315.358.114.684.098.942.06.287-.043.885-.362 1.01-.711.124-.35.124-.649.087-.711-.038-.063-.138-.101-.287-.176z"/></symbol><symbol viewBox="0 0 33 33" id="youtube" xmlns="http://www.w3.org/2000/svg"><path d="M32.67 9.503c0-.11-.331-2.534-1.378-3.69-1.267-1.378-2.644-1.543-3.36-1.599h-.22c-4.463-.33-11.13-.385-11.24-.385-.055 0-6.776.055-11.183.496h-.165c-.772.055-2.149.22-3.361 1.597C.661 7.08.331 9.558.331 9.67c0 0-.331 2.81-.331 5.619v2.59c0 2.754.33 5.564.33 5.619 0 .11.331 2.534 1.378 3.69 1.157 1.323 2.534 1.488 3.416 1.598.165 0 .275 0 .44.055 2.534.22 10.578.331 10.909.331.055 0 6.776 0 11.238-.496h.166c.77-.055 2.148-.22 3.36-1.598 1.102-1.156 1.432-3.636 1.432-3.746 0 0 .331-2.81.331-5.62v-2.588c0-2.755-.33-5.565-.33-5.62zm-.772 8.32c0 2.754-.33 5.508-.33 5.508-.11.606-.441 2.37-1.157 3.14-.937 1.102-2.039 1.212-2.645 1.268h-.165c-4.407.33-11.073.33-11.128.33-.056 0-8.32-.11-10.743-.385-.166 0-.331-.056-.496-.056-.772-.055-1.873-.22-2.755-1.212-.661-.716-1.047-2.479-1.102-3.085 0-.055-.33-2.81-.33-5.509v-2.59c0-2.754.33-5.508.33-5.508.055-.606.441-2.37 1.102-3.14.992-1.102 2.038-1.213 2.7-1.268h.165c4.407-.33 11.073-.385 11.128-.385.055 0 6.722.055 11.129.385h.22c.606.055 1.708.166 2.645 1.267.66.772.991 2.535 1.101 3.14.056.11.331 2.865.331 5.51v2.59z"/><path d="M23.359 16.555L12.89 10.44a.5.5 0 00-.55 0 .579.579 0 00-.276.496V22.89c0 .22.11.386.276.496.11.055.165.055.275.055.11 0 .165 0 .275-.055l10.468-5.84a.579.579 0 00.275-.495.58.58 0 00-.275-.496zm-10.192 5.399V11.872l8.815 5.179-8.815 4.903z"/></symbol></svg>