<svg width="19" height="19" viewBox="0 0 19 19" fill="none" xmlns="http://www.w3.org/2000/svg">
<path d="M12.9234 7.63893L9.87817 8.93972L6.37317 6.91611C6.02075 6.71264 5.57141 6.83304 5.36794 7.18546C5.16447 7.53789 5.28487 7.98722 5.63729 8.19069L9.46097 10.3983C9.6617 10.5142 9.90545 10.5291 10.118 10.4377L13.5015 8.99243C13.6538 8.9274 13.7725 8.81747 13.8494 8.68429C13.9616 8.48992 13.9847 8.24832 13.8885 8.02627C13.7297 7.65236 13.297 7.47904 12.9234 7.63893Z" fill="#EF7F1A"/>
<path d="M9.5 0C4.26138 0 0 4.26138 0 9.5C0 14.7386 4.26138 19 9.5 19C14.7386 19 19 14.7386 19 9.5C19 4.26138 14.7386 0 9.5 0ZM9.5 17.5283C5.07378 17.5283 1.47172 13.9262 1.47172 9.5C1.47172 5.07378 5.07378 1.47172 9.5 1.47172C13.927 1.47172 17.5283 5.07378 17.5283 9.5C17.5283 13.9262 13.9262 17.5283 9.5 17.5283Z" fill="#EF7F1A"/>
</svg>
