<svg width="34" height="34" viewBox="0 0 34 34" fill="none" xmlns="http://www.w3.org/2000/svg">
<path d="M21.8074 11.6304H23.4862C24.1767 11.6304 24.7386 11.0685 24.7386 10.378V7.20996C24.7386 6.5197 24.1767 5.95784 23.4862 5.95784H21.3457C19.5732 5.95784 17.8705 6.60919 16.5519 7.79231C16.347 7.97597 16.3299 8.29062 16.5136 8.49554C16.6972 8.70021 17.0121 8.71733 17.217 8.53368C18.3527 7.51501 19.8191 6.95393 21.3457 6.95393H23.4862C23.6276 6.95393 23.7425 7.06885 23.7425 7.20996V10.378C23.7425 10.5191 23.6276 10.6343 23.4862 10.6343H21.8074C20.1711 10.6343 18.8399 11.9653 18.8399 13.6016V16.3963C18.8399 16.6713 19.0627 16.8944 19.3379 16.8944H23.4862C23.6276 16.8944 23.7425 17.0093 23.7425 17.1504V20.3185C23.7425 20.4596 23.6276 20.5745 23.4862 20.5745H19.3379C19.0627 20.5745 18.8399 20.7976 18.8399 21.0725V26.0273C18.8399 26.3025 19.0627 26.5254 19.3379 26.5254C19.6129 26.5254 19.8359 26.3025 19.8359 26.0273V21.5706H23.4862C24.1767 21.5706 24.7386 21.009 24.7386 20.3185V17.1504C24.7386 16.4599 24.1767 15.8983 23.4862 15.8983H19.8359V13.6016C19.8359 12.5147 20.7202 11.6304 21.8074 11.6304Z" fill="#EF7F1A"/>
<path d="M31.5098 0H2.49023C1.11697 0 0 1.11697 0 2.49023V15.3889C0 15.6641 0.223083 15.8869 0.498047 15.8869C0.77301 15.8869 0.996094 15.6641 0.996094 15.3889V2.49023C0.996094 1.66638 1.66638 0.996094 2.49023 0.996094H31.5098C32.3336 0.996094 33.0039 1.66638 33.0039 2.49023V31.5098C33.0039 32.3336 32.3336 33.0039 31.5098 33.0039H19.8363V28.3199C19.8363 28.0447 19.6132 27.8219 19.3382 27.8219C19.063 27.8219 18.8402 28.0447 18.8402 28.3199V33.0039H15.1598V21.0726C15.1598 20.7976 14.937 20.5745 14.6618 20.5745H10.5135C10.3721 20.5745 10.2572 20.4596 10.2572 20.3182V17.1505C10.2572 17.0091 10.3721 16.8942 10.5135 16.8942H14.6618C14.937 16.8942 15.1598 16.6713 15.1598 16.3961V13.1401C15.1598 12.1186 15.414 11.1064 15.895 10.2128C16.0254 9.97054 15.9349 9.66859 15.6926 9.53812C15.4503 9.4079 15.1484 9.49843 15.0179 9.74071C14.4592 10.7788 14.1637 11.9544 14.1637 13.1399V15.8981H10.5135C9.82294 15.8981 9.26108 16.4597 9.26108 17.1505V20.3182C9.26108 21.0088 9.82294 21.5706 10.5135 21.5706H14.1637V33.0039H2.49023C1.66638 33.0039 0.996094 32.3336 0.996094 31.5098V17.6814C0.996094 17.4062 0.77301 17.1834 0.498047 17.1834C0.223083 17.1834 0 17.4062 0 17.6814V31.5098C0 32.883 1.11697 34 2.49023 34H31.5098C32.883 34 34 32.883 34 31.5098V2.49023C34 1.11697 32.883 0 31.5098 0Z" fill="#EF7F1A"/>
</svg>
