<svg width="22" height="22" viewBox="0 0 22 22" fill="none" xmlns="http://www.w3.org/2000/svg">
<g clip-path="url(#clip0)">
<path d="M17.3625 2.51193C13.8461 -0.83713 8.15432 -0.83749 4.63748 2.51193C1.12111 5.86087 1.12057 11.2818 4.63748 14.6312L10.5244 21.8124C10.7871 22.0626 11.2129 22.0625 11.4755 21.8124L17.3626 14.6312C20.8789 11.2823 20.8794 5.86139 17.3625 2.51193ZM16.4114 13.7254L10.9999 20.4537L5.58858 13.7254C2.60473 10.8836 2.60473 6.2596 5.58858 3.41779C8.57247 0.576026 13.4274 0.575946 16.4114 3.41779C19.3953 6.25956 19.3953 10.8836 16.4114 13.7254Z" fill="#EF7F1A"/>
<path d="M11 5C8.78931 5 7 6.78895 7 9C7 11.2107 8.78902 13 11 13C13.2107 13 15 11.211 15 9C15 6.78933 13.211 5 11 5ZM12.8826 10.8826C12.857 10.8826 12.2266 11.6624 11 11.6624C9.52853 11.6624 8.33758 10.4716 8.33758 9C8.33758 7.52856 9.52837 6.3376 11 6.3376C13.3903 6.3376 14.5392 9.22605 12.8826 10.8826Z" fill="#EF7F1A"/>
</g>
<defs>
<clipPath id="clip0">
<rect width="22" height="22" fill="white"/>
</clipPath>
</defs>
</svg>
