<svg width="34" height="34" viewBox="0 0 34 34" fill="none" xmlns="http://www.w3.org/2000/svg">
<path d="M28.1788 0H5.82124C2.61143 0 0 2.61143 0 5.82124V28.1788C0 31.3886 2.61143 34 5.82124 34H28.1788C31.3886 34 34 31.3886 34 28.1788V5.82124C34 2.61143 31.3886 0 28.1788 0ZM33.0039 28.1788C33.0039 30.8393 30.8393 33.0039 28.1788 33.0039H5.82124C3.16067 33.0039 0.996094 30.8393 0.996094 28.1788V5.82124C0.996094 3.16067 3.16067 0.996094 5.82124 0.996094H28.1788C30.8393 0.996094 33.0039 3.16067 33.0039 5.82124V28.1788Z" fill="#EF7F1A"/>
<path d="M17 7.45242C11.7355 7.45242 7.45251 11.7354 7.45251 16.9999C7.45251 22.2644 11.7355 26.5474 17 26.5474C22.2645 26.5474 26.5475 22.2644 26.5475 16.9999C26.5475 11.7354 22.2645 7.45242 17 7.45242ZM17 25.5513C12.2848 25.5513 8.44861 21.7152 8.44861 16.9999C8.44861 12.2847 12.2848 8.44852 17 8.44852C21.7152 8.44852 25.5514 12.2847 25.5514 16.9999C25.5514 21.7152 21.7152 25.5513 17 25.5513Z" fill="#EF7F1A"/>
<path d="M27.1141 4.25861C25.6653 4.25861 24.4867 5.43725 24.4867 6.8859C24.4867 8.33462 25.6653 9.51327 27.1141 9.51327C28.5628 9.51327 29.7414 8.33462 29.7414 6.8859C29.7414 5.43718 28.5628 4.25861 27.1141 4.25861ZM27.1141 8.51717C26.2146 8.51717 25.4828 7.78538 25.4828 6.8859C25.4828 5.98643 26.2146 5.2547 27.1141 5.2547C28.0135 5.2547 28.7453 5.9865 28.7453 6.8859C28.7453 7.78531 28.0135 8.51717 27.1141 8.51717Z" fill="#EF7F1A"/>
<path d="M12.8352 12.8353C14.8739 10.7966 18.0584 10.531 20.4074 12.2037C20.6314 12.3632 20.9424 12.311 21.102 12.0869C21.2615 11.8628 21.2092 11.5518 20.9852 11.3922C19.6742 10.4587 18.0651 10.0136 16.4547 10.1388C14.8243 10.2655 13.2887 10.973 12.1308 12.1309C10.9729 13.2889 10.2654 14.8245 10.1386 16.4547C10.0135 18.0653 10.4586 19.6742 11.3921 20.9852C11.4893 21.1217 11.6425 21.1944 11.7983 21.1944C11.8982 21.1944 11.9991 21.1644 12.0867 21.102C12.3108 20.9425 12.3631 20.6315 12.2035 20.4074C10.5309 18.0584 10.7965 14.8739 12.8352 12.8353Z" fill="#EF7F1A"/>
<path d="M21.9129 12.8979C21.6888 13.0575 21.6365 13.3685 21.7961 13.5925C23.4688 15.9414 23.2032 19.126 21.1645 21.1647C19.1258 23.2033 15.9413 23.469 13.5923 21.7963C13.3682 21.6368 13.0573 21.689 12.8977 21.9131C12.7381 22.1371 12.7904 22.4481 13.0145 22.6077C14.1805 23.438 15.582 23.8819 17.011 23.8819C17.1886 23.8819 17.3669 23.875 17.545 23.8612C19.1753 23.7344 20.7109 23.027 21.8688 21.869C23.0267 20.7111 23.7342 19.1755 23.861 17.5452C23.9861 15.9346 23.541 14.3256 22.6075 13.0147C22.4479 12.7907 22.137 12.7383 21.9129 12.8979Z" fill="#EF7F1A"/>
</svg>
