<svg width="23" height="23" viewBox="0 0 23 23" fill="none" xmlns="http://www.w3.org/2000/svg">
<path d="M19.9785 2.41406H3.02148C1.90459 2.41406 1 3.32427 1 4.43555V16.5645C1 17.6823 1.91124 18.5859 3.02148 18.5859H19.9785C21.0861 18.5859 22 17.6862 22 16.5645V4.43555C22 3.32625 21.099 2.41406 19.9785 2.41406ZM19.6954 3.76172C19.2824 4.17253 13.1748 11.2427 12.9294 11.4868C12.5476 11.8686 12.04 12.0789 11.5 12.0789C10.96 12.0789 10.4524 11.8686 10.0693 11.4855C9.90428 11.3214 3.87513 4.32926 3.30458 3.76172H19.6954ZM2.34766 16.2902V4.71069L7.17124 10.5036L2.34766 16.2902ZM3.30544 17.2383L8.12673 11.454L9.11766 12.4397C9.75402 13.0761 10.6001 13.4265 11.5 13.4265C12.3999 13.4265 13.246 13.0761 13.8811 12.441L14.8733 11.454L19.6946 17.2383H3.30544ZM20.6523 16.2902L15.8288 10.5036L20.6523 4.71069V16.2902Z" fill="#EF7F1A"/>
</svg>
