<svg width="24" height="24" viewBox="0 0 24 24" fill="none" xmlns="http://www.w3.org/2000/svg">
<path d="M18.9501 14.8671C18.4588 14.3555 17.8661 14.082 17.238 14.082C16.615 14.082 16.0173 14.3505 15.5057 14.8621L13.905 16.4577C13.7733 16.3868 13.6416 16.3209 13.515 16.2551C13.3326 16.1639 13.1604 16.0778 13.0135 15.9866C11.5142 15.0343 10.1516 13.7933 8.84471 12.1876C8.21154 11.3872 7.78605 10.7135 7.47706 10.0297C7.89242 9.64982 8.27739 9.25472 8.65222 8.87482C8.79405 8.73299 8.93588 8.5861 9.07771 8.44427C10.1414 7.38054 10.1414 6.00276 9.07771 4.93903L7.69487 3.55619C7.53784 3.39916 7.37575 3.23707 7.22379 3.07498C6.91987 2.76093 6.60075 2.43674 6.2715 2.13282C5.78016 1.64655 5.19258 1.38821 4.57461 1.38821C3.95663 1.38821 3.35892 1.64655 2.85238 2.13282C2.84732 2.13789 2.84732 2.13789 2.84225 2.14295L1.12003 3.88037C0.471661 4.52874 0.101889 5.31894 0.0208432 6.23577C-0.100726 7.71485 0.334896 9.09263 0.66921 9.99427C1.4898 12.2078 2.71562 14.2593 4.54421 16.4577C6.76284 19.1069 9.43229 21.1989 12.4816 22.6729C13.6467 23.225 15.2017 23.8784 16.9392 23.9899C17.0455 23.9949 17.157 24 17.2583 24C18.4284 24 19.4111 23.5796 20.181 22.7438C20.1861 22.7337 20.1962 22.7286 20.2013 22.7185C20.4647 22.3993 20.7686 22.1106 21.0877 21.8016C21.3055 21.594 21.5284 21.3761 21.7462 21.1482C22.2477 20.6265 22.5111 20.0186 22.5111 19.3956C22.5111 18.7675 22.2426 18.1647 21.731 17.6582L18.9501 14.8671ZM20.7635 20.201C20.7584 20.201 20.7584 20.206 20.7635 20.201C20.566 20.4137 20.3633 20.6062 20.1455 20.819C19.8163 21.133 19.482 21.4623 19.1679 21.832C18.6563 22.3791 18.0535 22.6374 17.2633 22.6374C17.1874 22.6374 17.1063 22.6374 17.0303 22.6324C15.5259 22.5361 14.1279 21.9485 13.0794 21.4471C10.2124 20.0591 7.69487 18.0887 5.60287 15.5915C3.87559 13.5096 2.72068 11.5848 1.95581 9.51812C1.48473 8.25685 1.31251 7.27417 1.38849 6.34721C1.43915 5.75456 1.66709 5.26322 2.08751 4.84279L3.8148 3.1155C4.063 2.8825 4.3264 2.75586 4.58474 2.75586C4.90385 2.75586 5.16219 2.94835 5.32428 3.11044C5.32934 3.1155 5.33441 3.12057 5.33948 3.12563C5.64846 3.41436 5.94225 3.71322 6.25124 4.03233C6.40827 4.19443 6.57036 4.35652 6.73245 4.52367L8.1153 5.90652C8.65222 6.44345 8.65222 6.93985 8.1153 7.47678C7.9684 7.62368 7.82657 7.77057 7.67967 7.9124C7.25418 8.34802 6.84895 8.75325 6.40827 9.14835C6.39814 9.15848 6.38801 9.16355 6.38294 9.17368C5.94732 9.6093 6.02837 10.0348 6.11954 10.3235C6.12461 10.3387 6.12967 10.3539 6.13474 10.3691C6.49438 11.2403 7.00091 12.0609 7.77085 13.0386L7.77592 13.0436C9.17396 14.7658 10.648 16.1082 12.274 17.1364C12.4816 17.2681 12.6944 17.3745 12.897 17.4758C13.0794 17.567 13.2516 17.6531 13.3985 17.7443C13.4187 17.7544 13.439 17.7696 13.4593 17.7797C13.6315 17.8658 13.7936 17.9064 13.9607 17.9064C14.3812 17.9064 14.6445 17.643 14.7307 17.5569L16.463 15.8245C16.6352 15.6523 16.9088 15.4446 17.2279 15.4446C17.5419 15.4446 17.8003 15.6421 17.9573 15.8144C17.9624 15.8194 17.9624 15.8194 17.9674 15.8245L20.7584 18.6155C21.2802 19.1322 21.2802 19.664 20.7635 20.201Z" fill="#EF7F1A"/>
<path d="M12.9525 5.70896C14.2796 5.93183 15.4852 6.55994 16.4476 7.52236C17.41 8.48478 18.0331 9.69033 18.261 11.0175C18.3167 11.3518 18.6055 11.5848 18.9347 11.5848C18.9752 11.5848 19.0107 11.5797 19.0512 11.5746C19.4261 11.5139 19.6743 11.1593 19.6135 10.7845C19.3399 9.17873 18.5801 7.71484 17.4202 6.55487C16.2602 5.39491 14.7963 4.6351 13.1906 4.36157C12.8158 4.30079 12.4662 4.54899 12.4004 4.91876C12.3345 5.28853 12.5777 5.64817 12.9525 5.70896Z" fill="#EF7F1A"/>
<path d="M23.9548 10.5869C23.5039 7.94278 22.2579 5.53674 20.3432 3.62203C18.4284 1.70732 16.0224 0.461243 13.3783 0.0104253C13.0085 -0.0554245 12.659 0.197844 12.5931 0.567615C12.5323 0.942452 12.7806 1.29196 13.1554 1.35781C15.5159 1.75798 17.6686 2.87742 19.3807 4.58445C21.0928 6.29654 22.2072 8.44932 22.6074 10.8098C22.6631 11.1441 22.9518 11.3771 23.2811 11.3771C23.3216 11.3771 23.357 11.372 23.3976 11.367C23.7673 11.3113 24.0206 10.9567 23.9548 10.5869Z" fill="#EF7F1A"/>
</svg>
