<svg width="24" height="24" viewBox="0 0 24 24" fill="none" xmlns="http://www.w3.org/2000/svg">
<path d="M22.6719 6.50754C21.8315 4.87769 20.606 3.43847 19.1279 2.34544C18.911 2.18508 18.6053 2.23091 18.4448 2.44776C18.2844 2.6646 18.3303 2.97042 18.5471 3.13086C19.9055 4.13533 21.0315 5.45774 21.8038 6.95524C22.6129 8.52437 23.0231 10.2216 23.0231 12C23.0231 18.0782 18.0781 23.0232 12 23.0232C5.9218 23.0232 0.976791 18.0782 0.976791 12C0.976791 5.92172 5.9218 0.976791 12 0.976791C12.2696 0.976791 12.4884 0.758071 12.4884 0.488396C12.4884 0.21872 12.2696 0 12 0C5.38318 0 0 5.38318 0 12C0 18.6167 5.38318 23.9999 12 23.9999C18.6167 23.9999 23.9999 18.6167 23.9999 12C23.9999 10.0916 23.5407 8.19243 22.6719 6.50754Z" fill="#EF7F1A"/>
<path d="M8.92936 6.42802C8.77665 6.51487 8.68231 6.67702 8.68231 6.8526V17.5708C8.68231 17.8405 8.90103 18.0592 9.17071 18.0592C9.44038 18.0592 9.6591 17.8405 9.6591 17.5708V7.71177L16.89 12.0164L11.5727 15.4423C11.346 15.5884 11.2806 15.8906 11.4267 16.1173C11.5729 16.3441 11.875 16.4095 12.1018 16.2633L18.0818 12.4105C18.2239 12.3189 18.3086 12.1603 18.3056 11.9913C18.3026 11.8222 18.2124 11.6667 18.0671 11.5802L9.42052 6.4329C9.26945 6.34312 9.08206 6.34117 8.92936 6.42802Z" fill="#EF7F1A"/>
</svg>
