<svg width="33" height="33" viewBox="0 0 33 33" fill="none" xmlns="http://www.w3.org/2000/svg">
<path d="M32.6694 9.50327C32.6694 9.39307 32.3389 6.96907 31.2922 5.81215C30.025 4.43487 28.6478 4.2696 27.9316 4.21446H27.7113C23.2488 3.88391 16.5827 3.82884 16.4725 3.82884C16.4175 3.82884 9.69624 3.88391 5.28888 4.32467H5.1236C4.35223 4.37974 2.97496 4.54501 1.76296 5.92229C0.661101 7.07921 0.330551 9.55834 0.330551 9.66855C0.330551 9.66855 0 12.4782 0 15.2879V17.8772C0 20.6319 0.330551 23.4415 0.330551 23.4966C0.330551 23.6068 0.661101 26.0308 1.70782 27.1877C2.86475 28.5099 4.24202 28.6752 5.12354 28.7854C5.28881 28.7854 5.39902 28.7854 5.56429 28.8405C8.09849 29.0608 16.1419 29.171 16.4725 29.171C16.5275 29.171 23.2488 29.171 27.7112 28.6752H27.8765C28.6478 28.6201 30.025 28.4549 31.237 27.0775C32.3389 25.9206 32.6694 23.4415 32.6694 23.3313C32.6694 23.3313 33 20.5216 33 17.7119V15.1226C33 12.368 32.6694 9.55834 32.6694 9.50327ZM31.8981 17.8221C31.8981 20.5767 31.5676 23.3313 31.5676 23.3313C31.4574 23.9373 31.1268 25.7002 30.4107 26.4715C29.4741 27.5734 28.3723 27.6835 27.7663 27.7386H27.601C23.1936 28.0692 16.5275 28.0692 16.4725 28.0692C16.4174 28.0692 8.15363 27.959 5.72957 27.6836C5.56429 27.6836 5.39902 27.6285 5.23374 27.6285C4.46243 27.5734 3.36064 27.4081 2.47913 26.4165C1.81803 25.7003 1.43241 23.9374 1.37727 23.3313C1.37727 23.2763 1.04672 20.5217 1.04672 17.8222V15.2328C1.04672 12.4782 1.37727 9.72368 1.37727 9.72368C1.43234 9.11765 1.81803 7.35476 2.47913 6.58345C3.47078 5.4816 4.5175 5.37139 5.17861 5.31632H5.34388C9.75125 4.98577 16.4173 4.9307 16.4724 4.9307C16.5275 4.9307 23.1936 4.98577 27.6009 5.31632H27.8213C28.4273 5.37139 29.5291 5.4816 30.4657 6.58345C31.1268 7.35476 31.4573 9.11765 31.5675 9.72368C31.6226 9.83389 31.8981 12.5884 31.8981 15.2328V17.8221H31.8981Z" fill="#EF7F1A"/>
<path d="M23.3588 16.555L12.8914 10.4398C12.7261 10.3296 12.5058 10.3296 12.3405 10.4398C12.1752 10.55 12.065 10.7153 12.065 10.9356V22.8905C12.065 23.1109 12.1752 23.2761 12.3405 23.3863C12.4507 23.4414 12.5058 23.4414 12.616 23.4414C12.7262 23.4414 12.7812 23.4414 12.8914 23.3863L23.3589 17.5466C23.5241 17.4364 23.6343 17.2712 23.6343 17.0508C23.6343 16.8305 23.5241 16.6651 23.3588 16.555ZM13.1669 21.9539V11.8721L21.9815 17.0507L13.1669 21.9539Z" fill="#EF7F1A"/>
</svg>
